<svg width="536" height="417" viewBox="0 0 536 417" fill="none" xmlns="http://www.w3.org/2000/svg">
<path d="M97.0755 88.3066L352.991 263.448L370.457 238.086L151.596 88.3066H97.0755Z" fill="#F2F2F2"/>
<path d="M12.994 88.3066V113.668L373.023 360.059L390.49 334.697L30.4546 88.3066H12.994Z" fill="#F2F2F2"/>
<path d="M12.9939 162.963V200.274L291.032 390.554H345.558L12.9939 162.963Z" fill="#F2F2F2"/>
<path d="M268 416.999C119.988 416.999 0 411.441 0 404.586C0 397.73 119.988 392.172 268 392.172C416.012 392.172 536 397.73 536 404.586C536 411.441 416.012 416.999 268 416.999Z" fill="#3F3D56"/>
<path opacity="0.1" d="M139.685 415.381C105.298 415.381 77.4223 411.514 77.4223 406.745C77.4223 401.976 105.298 398.109 139.685 398.109C174.072 398.109 201.948 401.976 201.948 406.745C201.948 411.514 174.072 415.381 139.685 415.381Z" fill="black"/>
<path opacity="0.1" d="M358.416 415.381C315.059 415.381 279.911 410.789 279.911 405.126C279.911 399.462 315.059 394.871 358.416 394.871C401.773 394.871 436.921 399.462 436.921 405.126C436.921 410.789 401.773 415.381 358.416 415.381Z" fill="black"/>
<path d="M264.356 120.251L250.604 117.117L240.388 120.251L318.186 397.572L329.188 403.839L318.186 262.045L264.356 120.251Z" fill="#9963FF"/>
<path opacity="0.1" d="M264.356 120.251L250.604 117.117L240.388 120.251L318.186 397.572L329.188 403.839L318.186 262.045L264.356 120.251Z" fill="black"/>
<path d="M458.263 34.2734L327.813 403.643L249.229 117.313L458.263 34.2734Z" fill="#9963FF"/>
<path d="M418.582 266.645C396.585 286.481 400.735 306.442 415.326 322.522C415.664 322.895 416.006 323.263 416.35 323.626C417.042 324.356 417.746 325.063 418.46 325.746C432.659 339.328 450.965 343.324 471.422 324.876C492.593 305.785 494.834 254.719 494.974 250.915C494.972 250.913 494.972 250.913 494.972 250.91C494.978 250.765 494.98 250.692 494.98 250.692C494.98 250.692 440.577 246.81 418.582 266.645Z" fill="#9963FF"/>
<path d="M419.652 320.548L424.914 296.44L418.038 322.052L416.35 323.626C417.042 324.357 417.746 325.063 418.46 325.746L439.425 304.755L439.603 304.61L439.617 304.561L441.598 302.577L467.914 298.306L443.126 301.14L442.661 301.511L458.501 285.651L483.974 279.34L461.321 282.904L494.974 250.916L495.085 250.809L494.972 250.91L467.924 275.575L470.426 256.737L465.618 277.725L450.95 291.392L457.507 269.99L448.792 293.4L440.635 300.999L449.304 270.703L437.791 303.651L419.652 320.548Z" fill="#3F3D56"/>
<path d="M360.04 229.176C378.244 229.176 396.039 234.557 411.175 244.639C426.311 254.721 438.108 269.051 445.075 285.817C452.041 302.582 453.864 321.031 450.312 338.829C446.761 356.628 437.995 372.977 425.123 385.809C412.251 398.64 395.851 407.379 377.997 410.919C360.142 414.46 341.636 412.643 324.818 405.698C308 398.754 293.625 386.993 283.512 371.905C273.398 356.816 268 339.076 268 320.929C268 296.595 277.697 273.257 294.958 256.05C312.219 238.843 335.63 229.176 360.04 229.176V229.176ZM358.416 343.328C368.732 343.328 377.095 333.179 377.095 320.659C377.095 308.14 368.732 297.991 358.416 297.991C348.1 297.991 339.737 308.14 339.737 320.659C339.737 333.179 348.1 343.328 358.416 343.328V343.328Z" fill="#3F3D56"/>
<path opacity="0.1" d="M358.958 343.327C369.274 343.327 377.636 333.178 377.636 320.658C377.636 308.139 369.274 297.99 358.958 297.99C348.967 297.99 340.808 307.509 340.304 319.482C340.292 319.155 340.279 318.829 340.279 318.499C340.28 312.48 342.261 306.627 345.918 301.837C349.575 297.048 354.706 293.585 360.526 291.98C366.346 290.376 372.533 290.717 378.139 292.953C383.745 295.189 388.462 299.195 391.565 304.358C394.669 309.521 395.99 315.557 395.324 321.539C394.658 327.522 392.043 333.122 387.88 337.482C383.716 341.841 378.233 344.72 372.272 345.676C366.31 346.632 360.199 345.614 354.873 342.777C356.204 343.14 357.578 343.325 358.958 343.327V343.327Z" fill="black"/>
<path d="M455.709 0C463.558 -1.06748e-06 471.231 2.32023 477.757 6.66728C484.283 11.0143 489.37 17.193 492.373 24.4218C495.377 31.6507 496.163 39.6052 494.631 47.2793C493.1 54.9535 489.321 62.0026 483.771 67.5354C478.22 73.0681 471.149 76.836 463.451 78.3624C455.753 79.8889 447.774 79.1055 440.522 76.1112C433.271 73.1169 427.073 68.0462 422.712 61.5404C418.351 55.0346 416.024 47.3858 416.024 39.5613C416.024 34.366 417.05 29.2216 419.045 24.4218C421.039 19.6221 423.962 15.2608 427.647 11.5872C431.332 7.91363 435.707 4.99957 440.522 3.01142C445.337 1.02328 450.497 0 455.709 0V0ZM455.009 49.2189C459.457 49.2189 463.062 44.843 463.062 39.4449C463.062 34.0469 459.457 29.671 455.009 29.671C450.561 29.671 446.955 34.0469 446.955 39.4449C446.955 44.843 450.561 49.2189 455.009 49.2189Z" fill="#3F3D56"/>
<path opacity="0.1" d="M455.242 49.2189C459.69 49.2189 463.296 44.843 463.296 39.4449C463.296 34.0469 459.69 29.671 455.242 29.671C450.934 29.671 447.417 33.7754 447.199 38.9377C447.194 38.7968 447.188 38.6562 447.188 38.5141C447.189 35.9187 448.043 33.3951 449.62 31.3299C451.196 29.2646 453.409 27.7717 455.918 27.0798C458.428 26.3879 461.095 26.5352 463.512 27.4992C465.93 28.4631 467.963 30.1905 469.302 32.4168C470.64 34.643 471.209 37.2452 470.922 39.8247C470.635 42.4043 469.507 44.8189 467.712 46.6986C465.917 48.5783 463.553 49.8194 460.983 50.2317C458.412 50.6441 455.777 50.205 453.481 48.9817C454.055 49.1384 454.647 49.2181 455.242 49.2189V49.2189Z" fill="black"/>
<path d="M166.756 357.09H172.711V407.284C172.711 407.284 134.271 419.698 96.9131 407.284V357.09H166.756Z" fill="#3F3D56"/>
<path d="M135.354 363.027C114.722 363.027 97.996 360.49 97.996 357.36C97.996 354.231 114.722 351.693 135.354 351.693C155.986 351.693 172.711 354.231 172.711 357.36C172.711 360.49 155.986 363.027 135.354 363.027Z" fill="#3F3D56"/>
<path opacity="0.1" d="M135.354 363.027C114.722 363.027 97.996 360.49 97.996 357.36C97.996 354.231 114.722 351.693 135.354 351.693C155.986 351.693 172.711 354.231 172.711 357.36C172.711 360.49 155.986 363.027 135.354 363.027Z" fill="black"/>
<path d="M91.9277 297.12C101.352 331.848 133.631 353.357 133.631 353.357C133.631 353.357 150.632 318.559 141.208 283.83C131.783 249.102 99.5038 227.594 99.5038 227.594C99.5038 227.594 82.5037 262.391 91.9277 297.12Z" fill="#3F3D56"/>
<path d="M177.661 297.12C168.237 331.848 135.957 353.357 135.957 353.357C135.957 353.357 118.957 318.559 128.381 283.83C137.805 249.102 170.085 227.594 170.085 227.594C170.085 227.594 187.085 262.391 177.661 297.12Z" fill="#9963FF"/>
<path d="M163.813 289.656C137.953 314.751 134.794 353.328 134.794 353.328C134.794 353.328 173.563 351.218 199.422 326.123C225.282 301.028 228.441 262.451 228.441 262.451C228.441 262.451 189.672 264.561 163.813 289.656Z" fill="#3F3D56"/>
<path d="M105.776 289.656C131.636 314.751 134.794 353.328 134.794 353.328C134.794 353.328 96.0257 351.218 70.1659 326.123C44.3061 301.028 41.1475 262.451 41.1475 262.451C41.1475 262.451 79.916 264.561 105.776 289.656Z" fill="#3F3D56"/>
<path d="M134.812 239.43C128.234 239.43 122.901 234.113 122.901 227.556C122.901 220.998 128.234 215.682 134.812 215.682C141.39 215.682 146.723 220.998 146.723 227.556C146.723 234.113 141.39 239.43 134.812 239.43Z" fill="#9963FF"/>
<path d="M356.556 134.914C356.556 134.914 333.629 135.535 329.842 136.909C326.056 138.282 324.363 148.102 324.363 148.102L342.164 153.68L355.478 152.928L365.499 153.634L359.904 139.026L356.556 134.914Z" fill="#2F2E41"/>
<path d="M355.567 127.414C355.567 127.414 354.058 133.222 357.406 137.334C360.754 141.447 343.014 156.1 343.014 156.1L333.656 154.497C333.656 154.497 335.718 136.651 332.948 132.132C330.177 127.613 355.567 127.414 355.567 127.414Z" fill="#9F616A"/>
<path opacity="0.1" d="M355.567 127.414C355.567 127.414 354.058 133.222 357.406 137.334C360.754 141.447 343.014 156.1 343.014 156.1L333.656 154.497C333.656 154.497 335.718 136.651 332.948 132.132C330.177 127.613 355.567 127.414 355.567 127.414Z" fill="black"/>
<path d="M293.327 297.223L313.976 324.52L299.884 332.721L280.49 301.089L293.327 297.223Z" fill="#9F616A"/>
<path d="M307.811 324.981C307.811 324.981 315.415 316.173 315.077 318.137C314.738 320.101 320.487 336.758 315.138 338.369C309.789 339.98 263.92 344.253 263.289 339.09C262.658 333.927 276.973 330.313 276.973 330.313C276.973 330.313 285.477 322.165 287.363 322.994C289.248 323.822 307.811 324.981 307.811 324.981Z" fill="#2F2E41"/>
<path d="M297.96 323.293L281.467 351.305L269.015 344.116L285.646 321.184L297.96 323.293Z" fill="#9F616A"/>
<path d="M271.924 256.652L276.819 263.557C276.819 263.557 300.154 295.865 297.676 298.473C295.197 301.082 284.877 310.94 279.628 309.03C274.379 307.12 255.732 274.099 255.732 274.099L260.596 254.711L271.924 256.652Z" fill="#2F2E41"/>
<path d="M372.444 250.115C372.444 250.115 367.218 259.836 353.973 263.127C340.728 266.419 326.89 273.147 326.398 273.063C325.905 272.978 324.512 272.234 324.174 274.198C323.835 276.162 320.202 279.584 320.202 279.584C320.202 279.584 305.572 329.146 299.984 329.2C294.397 329.254 282.914 325.264 282.676 323.707C282.437 322.149 299.784 271.536 299.954 270.554L301.986 258.769C301.986 258.769 279.043 262.421 276.904 263.066C274.764 263.71 255.732 274.098 255.732 274.098C255.732 274.098 236.329 260.158 254.477 246.08C272.625 232.001 303.817 221.674 303.817 221.674L315.008 218.537L324.76 217.956L326.196 212.467L349.294 213.795L373.399 223.992L372.444 250.115Z" fill="#2F2E41"/>
<path d="M341.96 138.975C332.023 138.975 323.968 130.945 323.968 121.039C323.968 111.134 332.023 103.104 341.96 103.104C351.897 103.104 359.952 111.134 359.952 121.039C359.952 130.945 351.897 138.975 341.96 138.975Z" fill="#9F616A"/>
<path d="M358.237 135.455L356.073 135.084C356.073 135.084 352.165 150.086 340.074 152.564C340.074 152.564 334.108 145.439 334.363 144.237C334.618 143.035 329.638 136.621 326.991 140.211C324.343 143.802 327.637 207.051 325.413 208.187C323.189 209.322 318.417 210.527 322.258 214.724C326.098 218.92 341.352 224.567 344.73 222.618C348.109 220.67 355.013 204.159 357.999 198.604C360.985 193.05 365.764 174.153 365.764 174.153C365.764 174.153 371.867 153.461 368.112 148.774C364.356 144.086 358.237 135.455 358.237 135.455Z" fill="#D0CDE1"/>
<path d="M341.018 213.322C341.42 217.727 342.109 222.103 343.079 226.42C343.961 229.932 344.989 232.053 346.161 231.963C349.153 231.74 350.513 236.114 351.214 241.157C351.963 246.507 351.963 252.61 352.374 254.767C352.918 257.617 356.399 259.792 363.356 259.153C367.499 258.683 371.565 257.689 375.455 256.195C384.847 252.791 384.569 225.185 382.998 204.7C382.037 192.144 380.593 182.257 380.593 182.257C380.593 182.257 383.445 173.774 384.358 167.96C384.539 166.899 384.63 165.825 384.63 164.749C384.491 159.67 375.189 145.945 369.569 137.396C363.942 128.847 356.266 135.118 356.266 135.118L358.938 143.156C358.938 143.156 354.798 149.524 354.768 155.585C354.737 161.646 344.856 166.02 341.308 168.954C339.078 170.798 339.132 195.41 341.018 213.322Z" fill="#2F2E41"/>
<path d="M333.206 137.99C333.206 137.99 332.557 138.754 329.588 138.382C326.028 137.934 321.132 139.163 319.995 142.551C317.909 148.766 312.029 174.046 312.029 174.046C312.029 174.046 309.582 202.947 308.481 209.33C307.381 215.713 307.927 221.368 306.842 224.72C305.757 228.073 317.555 218.467 321.904 219.718C326.252 220.969 329.046 204.765 328.499 199.111C327.953 193.456 327.491 187.311 329 181.503C330.508 175.695 327.834 160.324 327.934 156.802C328.034 153.281 337.522 144.405 333.206 137.99Z" fill="#2F2E41"/>
<path d="M320.475 227.814C320.475 227.814 301.425 238.175 299.602 252.921C297.779 267.667 325.082 238.643 325.082 238.643L320.475 227.814Z" fill="#9F616A"/>
<path d="M309.6 217.358C309.6 217.358 303.763 246.689 294.67 245.131C285.576 243.573 299.749 215.67 299.749 215.67L309.6 217.358Z" fill="#9F616A"/>
<path d="M278.458 345.227C278.458 345.227 283.114 350.575 284.269 349.762C285.423 348.948 288.078 360.019 285.685 362.137C283.291 364.254 274.071 367.73 273.971 371.251C273.871 374.773 249.143 374.075 248.258 370.384C247.373 366.694 251.36 358.278 254.161 356.736C256.963 355.193 267.321 341 267.321 341C267.321 341 275.434 342.181 278.458 345.227Z" fill="#2F2E41"/>
<path opacity="0.1" d="M323.509 245.754C327.927 242.645 340.263 241.874 351.214 241.157C356.019 240.85 360.557 240.549 364.045 240.06C367.405 239.597 370.427 236.536 373.11 231.975C377.178 225.065 380.465 214.702 382.998 204.7C382.037 192.145 380.592 182.258 380.592 182.258C380.592 182.258 383.445 173.775 384.358 167.961C383.714 167.068 382.886 166.324 381.928 165.78C370.312 160.809 359.222 209.725 357.814 217.401C357.789 217.527 357.771 217.648 357.753 217.75C357.07 221.703 349.691 225.083 343.079 226.42C339.005 227.246 335.216 227.3 333.469 226.227C328.882 223.42 314.776 234.656 313.706 234.975C312.637 235.301 317.163 250.231 323.509 245.754Z" fill="black"/>
<path d="M381.926 162.768C381.926 162.768 390.369 166.742 386.659 185.317C382.95 203.891 375.477 235.47 364.048 237.05C352.619 238.631 329.861 238.27 323.512 242.743C317.163 247.216 312.637 232.286 313.707 231.963C314.777 231.641 328.884 220.409 333.471 223.217C338.058 226.025 356.652 221.123 357.752 214.74C358.853 208.356 370.12 157.712 381.926 162.768Z" fill="#2F2E41"/>
<path d="M321.088 153.861L311.809 175.325C311.809 175.325 310.875 174.86 309.79 178.213C308.705 181.566 308.197 184.512 306.296 186.714C304.395 188.915 295.937 220.325 295.683 221.798C295.429 223.271 307.365 228.35 310.032 224.257C312.699 220.164 321.088 153.861 321.088 153.861Z" fill="#2F2E41"/>
<path d="M352.196 120.79C351.507 120.607 351.406 119.694 351.382 118.983C351.259 115.175 348.958 111.268 345.302 110.159C343.899 109.776 342.43 109.695 340.993 109.923C338.942 110.195 336.962 110.854 335.157 111.864C334.205 112.397 333.271 113.04 332.191 113.203C331.477 113.311 328.388 114.206 327.678 114.332C326.116 114.609 324.665 116.002 323.166 115.484C321.732 114.988 321.415 113.137 321.38 111.625C321.301 108.179 323.925 103.409 326.237 100.846C327.991 98.9006 330.632 98.0026 333.213 97.5356C336.229 97.0526 339.285 96.8672 342.337 96.9823C346.469 97.0558 350.715 97.3737 354.441 99.1558C358.166 100.938 361.296 104.485 361.474 108.6C361.512 109.458 361.423 110.318 361.495 111.174C361.672 113.259 362.783 115.144 363.304 117.171C363.676 118.659 363.732 120.209 363.467 121.719C363.203 123.23 362.623 124.668 361.766 125.942C360.384 127.971 358.211 129.805 358.29 132.256L355.292 129.16C354.845 128.819 354.528 128.335 354.394 127.79C354.261 127.244 354.32 126.669 354.56 126.161L355.621 122.035C355.894 121.299 355.926 120.495 355.713 119.739C354.576 116.936 353.346 121.096 352.196 120.79Z" fill="#2F2E41"/>
</svg>
