<svg width="40" height="40" viewBox="0 0 40 40" fill="none" xmlns="http://www.w3.org/2000/svg">
<path d="M29.9375 15.875C29.875 14.8125 29.7188 14.0938 29.4688 13.4375C29.2188 12.7812 28.875 12.2188 28.3125 11.6562C27.75 11.0938 27.2188 10.7812 26.5625 10.5312C25.9375 10.2812 25.1875 10.125 24.125 10.0625C23.0625 10 22.7188 10 20 10C17.2812 10 16.9375 10 15.875 10.0625C14.8125 10.125 14.0938 10.2812 13.4375 10.5312C12.7812 10.7812 12.2188 11.125 11.6875 11.6875C11.1562 12.25 10.7812 12.7812 10.5312 13.4375C10.2812 14.0625 10.125 14.8125 10.0625 15.875C10 16.9375 10 17.2812 10 20C10 22.7188 10 23.0625 10.0625 24.125C10.125 25.1875 10.2812 25.9062 10.5312 26.5625C10.7812 27.2188 11.125 27.7812 11.6875 28.3438C12.25 28.9062 12.8125 29.25 13.4688 29.5C14.0938 29.75 14.8438 29.9062 15.9062 29.9688C16.9375 30 17.2812 30 20 30C22.7188 30 23.0625 30 24.125 29.9375C25.1875 29.875 25.9062 29.7188 26.5625 29.4688C27.2188 29.2188 27.7812 28.875 28.3438 28.3125C28.9062 27.75 29.25 27.1875 29.5 26.5312C29.75 25.9062 29.9062 25.1562 29.9688 24.0938C30 23.0625 30 22.7188 30 20C30 17.2812 30 16.9375 29.9375 15.875ZM28.125 24.0312C28.0938 25 27.9062 25.5312 27.7812 25.875C27.5938 26.3438 27.375 26.6875 27.0312 27.0312C26.6875 27.375 26.3438 27.5938 25.875 27.7812C25.5312 27.9062 25 28.0938 24.0312 28.125C22.9688 28.1875 22.6562 28.1875 20 28.1875C17.3438 28.1875 17 28.1875 15.9688 28.125C15 28.0938 14.4688 27.9062 14.125 27.7812C13.6562 27.5938 13.3125 27.375 12.9688 27.0312C12.625 26.6875 12.4062 26.3438 12.2188 25.875C12.0938 25.5312 11.9062 25 11.875 24.0312C11.8125 23 11.8125 22.6875 11.8125 20C11.8125 17.3125 11.8125 17 11.875 15.9688C11.9062 15 12.0938 14.4688 12.2188 14.125C12.4062 13.6562 12.625 13.3125 12.9688 12.9688C13.3125 12.625 13.6562 12.4062 14.125 12.2188C14.4688 12.0938 15 11.9062 15.9688 11.875C17.0312 11.8125 17.3438 11.8125 20 11.8125C22.6562 11.8125 23 11.8125 24.0312 11.875C25 11.9062 25.5312 12.0938 25.875 12.2188C26.3438 12.4062 26.6875 12.625 27.0312 12.9688C27.375 13.3125 27.5938 13.6562 27.7812 14.125C27.9062 14.4688 28.0938 15 28.125 15.9688C28.1875 17.0312 28.1875 17.3438 28.1875 20C28.1875 22.6562 28.1875 23 28.125 24.0312Z" fill="white"/>
<path d="M20 14.875C17.1562 14.875 14.875 17.1875 14.875 20C14.875 22.8438 17.1875 25.125 20 25.125C22.8125 25.125 25.125 22.8438 25.125 20C25.125 17.1562 22.8438 14.875 20 14.875ZM20 23.3438C18.1562 23.3438 16.6562 21.8438 16.6562 20C16.6562 18.1562 18.1562 16.6562 20 16.6562C21.8438 16.6562 23.3438 18.1562 23.3438 20C23.3438 21.8438 21.8438 23.3438 20 23.3438Z" fill="white"/>
<path d="M25.3437 15.8438C25.9996 15.8438 26.5313 15.3121 26.5313 14.6562C26.5313 14.0004 25.9996 13.4688 25.3437 13.4688C24.6879 13.4688 24.1562 14.0004 24.1562 14.6562C24.1562 15.3121 24.6879 15.8438 25.3437 15.8438Z" fill="white"/>
</svg>
