<svg width="118" height="70" viewBox="0 0 118 70" fill="none" xmlns="http://www.w3.org/2000/svg">
<path d="M31.3925 12.8539C31.5326 12.8773 31.6026 13.0057 31.6026 13.2392C31.6026 13.4493 31.5559 13.6128 31.4625 13.7295C31.229 14.0798 30.6686 14.2549 29.7813 14.2549H28.7306C28.5438 20.4892 27.5515 25.0774 25.7535 28.0195C23.979 30.9382 21.7608 32.3975 19.0989 32.3975C13.9153 32.3975 11.3235 28.8017 11.3235 21.61V15.3757C11.3002 12.3869 11.0317 10.3088 10.518 9.14135C10.0043 7.97387 9.26877 7.39013 8.31144 7.39013C6.11658 7.39013 5.01915 9.58499 5.01915 13.9747C4.97245 14.1148 4.84403 14.1848 4.63388 14.1848C4.42374 14.1848 4.26029 14.1382 4.14354 14.0448C3.7933 13.8113 3.61818 13.2509 3.61818 12.3636C3.61818 10.2154 4.07349 8.58096 4.98412 7.46018C5.89476 6.3394 7.14396 5.77901 8.73173 5.77901C10.9733 5.77901 12.491 6.49117 13.2849 7.9155C14.0788 9.33982 14.4757 11.8265 14.4757 15.3757V21.7851C14.4757 25.1241 14.8376 27.4941 15.5615 28.8951C16.2853 30.296 17.4878 30.9965 19.169 30.9965C20.8501 30.9965 22.3445 29.5372 23.6521 26.6185C24.9597 23.6764 25.6134 19.4735 25.6134 14.0097C21.5273 13.4026 19.4842 11.6631 19.4842 8.7911C19.4842 7.74038 19.8111 6.87644 20.4649 6.1993C21.142 5.52217 22.0526 5.1836 23.1968 5.1836C24.9713 5.1836 26.2906 5.81404 27.1545 7.07491C28.0418 8.31244 28.5788 10.2154 28.7656 12.7839C29.8397 12.8306 30.7153 12.8539 31.3925 12.8539ZM21.0953 8.68603C21.0953 10.6474 22.5897 11.9083 25.5784 12.4687C25.5084 10.2738 25.2749 8.75608 24.8779 7.9155C24.5043 7.07491 23.979 6.65462 23.3018 6.65462C22.6481 6.65462 22.111 6.85309 21.6907 7.25003C21.2938 7.64698 21.0953 8.12564 21.0953 8.68603Z" fill="white"/>
<path d="M31.3065 11.453C30.9096 11.056 30.7111 10.5657 30.7111 9.98193C30.7111 9.39819 30.9096 8.90785 31.3065 8.51091C31.7035 8.09062 32.1938 7.88047 32.7776 7.88047C33.3613 7.88047 33.8516 8.09062 34.2486 8.51091C34.6689 8.90785 34.879 9.39819 34.879 9.98193C34.879 10.5657 34.6689 11.056 34.2486 11.453C33.8516 11.8499 33.3613 12.0484 32.7776 12.0484C32.1938 12.0484 31.7035 11.8499 31.3065 11.453ZM31.1664 17.0218C31.1664 16.3213 31.3416 15.796 31.6918 15.4457C32.0421 15.0721 32.4857 14.8853 33.0227 14.8853C33.5598 14.8853 33.9917 15.0488 34.3186 15.3757V25.4277C34.3186 26.7586 34.5755 27.7626 35.0892 28.4397C35.6029 29.1169 36.3033 29.4555 37.1906 29.4555C38.0779 29.4555 38.9068 28.9184 39.6774 27.8443C40.4479 26.7703 40.8332 25.0307 40.8332 22.6257C40.8799 22.4856 41.055 22.4156 41.3585 22.4156C41.7788 22.4156 41.989 23.0343 41.989 24.2719C41.989 26.0698 41.4986 27.6108 40.5179 28.8951C39.5373 30.1793 38.2881 30.8214 36.7703 30.8214C34.879 30.8214 33.4664 30.261 32.5324 29.1402C31.6218 28.0195 31.1664 26.4317 31.1664 24.3769V17.0218Z" fill="white"/>
<path d="M40.912 11.8382C40.912 11.1377 41.0871 10.6124 41.4373 10.2621C41.7876 9.88853 42.2312 9.70174 42.7682 9.70174C43.3053 9.70174 43.7373 9.86518 44.0642 10.1921V15.3757H48.8625C49.3528 15.3757 49.668 15.4691 49.8081 15.6559C49.9716 15.8427 50.0533 16.1579 50.0533 16.6015H44.0642V25.4277C44.0642 26.7119 44.4261 27.7042 45.1499 28.4047C45.8971 29.1052 46.7493 29.4555 47.7067 29.4555C49.1544 29.4555 50.2168 28.9184 50.8939 27.8443C51.571 26.7703 51.9096 25.0307 51.9096 22.6257C51.9563 22.4856 52.1314 22.4156 52.435 22.4156C52.8553 22.4156 53.0654 23.0343 53.0654 24.2719C53.0654 26.1632 52.5867 27.7276 51.6294 28.9651C50.6954 30.2026 49.2477 30.8214 47.2864 30.8214C45.325 30.8214 43.7723 30.3077 42.6282 29.2803C41.484 28.253 40.912 26.7236 40.912 24.6921V11.8382Z" fill="white"/>
<path d="M62.3961 15.901C62.6996 15.2239 63.1783 14.8853 63.8321 14.8853C64.5092 14.8853 65.0112 15.0488 65.3381 15.3757V25.4277C65.3381 26.7586 65.5483 27.7626 65.9686 28.4397C66.3889 29.1169 66.9609 29.4555 67.6848 29.4555C69.8796 29.4555 70.9771 27.1789 70.9771 22.6257C71.0004 22.4856 71.1755 22.4156 71.5024 22.4156C71.9227 22.4156 72.1329 23.0343 72.1329 24.2719C72.1329 26.2566 71.7009 27.8443 70.837 29.0352C69.9964 30.226 68.8055 30.8214 67.2645 30.8214C64.9062 30.8214 63.3418 29.7823 62.5712 27.7042C62.1276 28.6616 61.5205 29.4204 60.75 29.9808C59.9794 30.5412 59.1038 30.8214 58.1231 30.8214C54.037 30.8214 51.9939 28.1479 51.9939 22.8008C51.9939 20.0923 52.6243 18.0959 53.8852 16.8117C55.1694 15.5274 56.8623 14.8853 58.9637 14.8853C60.5748 14.8853 61.719 15.2239 62.3961 15.901ZM55.8115 27.1088C56.1384 28.1362 56.512 28.79 56.9323 29.0702C57.3526 29.327 57.913 29.4555 58.6135 29.4555C59.314 29.4555 60.0728 29.0235 60.8901 28.1596C61.7306 27.2723 62.1509 26.1281 62.1509 24.7272V19.9288C62.1509 18.8314 61.8591 17.9441 61.2753 17.267C60.7149 16.5899 60.0728 16.2513 59.349 16.2513C58.6485 16.2513 58.0881 16.3213 57.6678 16.4614C57.2475 16.6015 56.8506 16.8934 56.477 17.337C55.7065 18.1776 55.3212 19.9989 55.3212 22.8008C55.3212 24.6454 55.4846 26.0814 55.8115 27.1088Z" fill="white"/>
<path d="M81.3423 22.4156C81.7626 22.4156 81.9728 23.0343 81.9728 24.2719C81.9728 26.0698 81.4824 27.6108 80.5018 28.8951C79.5211 30.1793 78.2719 30.8214 76.7542 30.8214C74.8628 30.8214 73.4502 30.261 72.5162 29.1402C71.5822 28.0195 71.1152 26.4317 71.1152 24.3769V11.2078C71.1152 8.19569 71.4305 5.98916 72.0609 4.58819C72.6913 3.18721 73.8004 2.48673 75.3882 2.48673C77.6998 2.48673 78.8556 4.05115 78.8556 7.17998C78.8556 9.53829 78.3886 11.4296 77.4546 12.8539C76.544 14.2782 75.4933 15.3407 74.3025 16.0411V25.4277C74.3025 26.7586 74.5593 27.7626 75.073 28.4397C75.5867 29.1169 76.2872 29.4555 77.1744 29.4555C78.0617 29.4555 78.8906 28.9184 79.6612 27.8443C80.4317 26.7703 80.817 25.0307 80.817 22.6257C80.8637 22.4856 81.0388 22.4156 81.3423 22.4156ZM77.3496 7.21501C77.3496 4.97345 76.7892 3.85268 75.6684 3.85268C75.3882 3.85268 75.1664 3.94607 75.0029 4.13287C74.8628 4.31967 74.7344 4.78666 74.6177 5.53384C74.4075 6.67797 74.3025 9.69006 74.3025 14.5701C76.3339 13.0991 77.3496 10.6474 77.3496 7.21501Z" fill="white"/>
<path d="M80.8274 17.0218C80.8274 16.3213 81.0025 15.796 81.3527 15.4457C81.703 15.0721 82.1466 14.8853 82.6837 14.8853C83.2207 14.8853 83.6527 15.0488 83.9796 15.3757V25.4277C83.9796 28.2063 84.6801 29.5956 86.081 29.5956C87.3419 29.5956 88.3693 28.9301 89.1632 27.5992C89.9804 26.2682 90.389 24.0267 90.389 20.8745V17.0218C90.389 16.3213 90.5641 15.796 90.9144 15.4457C91.2646 15.0721 91.7083 14.8853 92.2453 14.8853C92.7823 14.8853 93.2143 15.0488 93.5412 15.3757V33.168C93.8214 33.1447 94.265 33.133 94.8721 33.133C95.4792 33.133 95.7828 33.3899 95.7828 33.9035L95.5726 34.4289C94.6853 34.4289 94.0082 34.4406 93.5412 34.4639V36.2151C93.5412 38.6202 92.9925 40.5115 91.8951 41.8891C90.821 43.2901 89.3733 43.9905 87.552 43.9905C86.478 43.9905 85.5206 43.6637 84.6801 43.0099C83.8628 42.3794 83.4542 41.3754 83.4542 39.9978C83.4542 38.2232 84.0846 36.8106 85.3455 35.7598C86.6064 34.7091 88.2876 33.9736 90.389 33.5533V28.0895C89.4083 29.9108 87.8322 30.8214 85.6607 30.8214C84.1664 30.8214 82.9872 30.3427 82.1233 29.3854C81.2593 28.4281 80.8274 27.0505 80.8274 25.2525V17.0218ZM85.2404 40.1028C85.2404 40.9201 85.4623 41.5388 85.9059 41.9591C86.3495 42.4028 86.8866 42.6246 87.517 42.6246C88.1475 42.6246 88.6611 42.4378 89.0581 42.0642C89.9454 41.2703 90.389 38.877 90.389 34.8842C86.9566 35.6548 85.2404 37.3943 85.2404 40.1028Z" fill="white"/>
<path d="M100.977 7.21501C100.673 7.21501 100.405 7.15664 100.171 7.03989C99.9613 6.89979 99.8563 6.72467 99.8563 6.51452C99.8563 6.28103 99.938 6.10591 100.101 5.98916C100.755 5.98916 101.269 5.77901 101.642 5.35872C102.016 4.91508 102.203 4.43641 102.203 3.92272C102.203 3.38568 102.168 2.97707 102.098 2.69687C101.794 3.11716 101.374 3.32731 100.837 3.32731C100.323 3.32731 99.9029 3.16386 99.5761 2.83697C99.2725 2.51008 99.1207 2.12481 99.1207 1.68117C99.1207 1.21418 99.2842 0.817234 99.6111 0.49034C99.938 0.163447 100.335 0 100.802 0C101.642 0 102.32 0.291869 102.833 0.875607C103.347 1.45935 103.604 2.31161 103.604 3.43238C103.604 4.52981 103.347 5.44044 102.833 6.16428C102.32 6.86477 101.701 7.21501 100.977 7.21501Z" fill="white"/>
<path d="M111.318 23.6764C110.384 23.3495 109.45 23.011 108.516 22.6607C107.605 22.2871 106.835 21.7618 106.204 21.0846C105.574 20.4075 105.258 19.5436 105.258 18.4928C105.258 17.4188 105.749 16.5548 106.729 15.901C107.71 15.2239 109.135 14.8853 111.002 14.8853C112.894 14.8853 114.365 15.2122 115.416 15.866C116.49 16.5198 117.027 17.2787 117.027 18.1426C117.027 18.5629 116.863 18.9015 116.536 19.1583C116.233 19.4151 115.929 19.5436 115.626 19.5436C115.042 19.5436 114.657 19.4035 114.47 19.1233C114.61 18.9598 114.68 18.6446 114.68 18.1776C114.68 17.6873 114.318 17.2436 113.594 16.8467C112.87 16.4498 112.065 16.2513 111.178 16.2513C110.29 16.2513 109.555 16.4147 108.971 16.7416C108.387 17.0685 108.095 17.5705 108.095 18.2477C108.095 18.9015 108.422 19.4735 109.076 19.9639C109.753 20.4542 110.559 20.8628 111.493 21.1897C112.45 21.5166 113.396 21.8668 114.33 22.2404C115.287 22.614 116.093 23.1511 116.746 23.8516C117.424 24.5287 117.762 25.3693 117.762 26.3733C117.762 27.8677 117.108 28.9885 115.801 29.7356C114.517 30.4595 112.812 30.8214 110.687 30.8214C108.586 30.8214 106.87 30.2143 105.539 29.0001C104.231 27.7626 103.577 26.2332 103.577 24.412C103.577 23.7582 103.706 23.2445 103.963 22.8709C104.219 22.4973 104.511 22.3105 104.838 22.3105C105.445 22.3105 105.796 22.4156 105.889 22.6257L105.959 22.7308C105.819 23.081 105.749 23.513 105.749 24.0267C105.749 25.5911 106.204 26.887 107.115 27.9144C108.025 28.9418 109.286 29.4555 110.897 29.4555C113.372 29.4555 114.622 28.5798 114.645 26.8286C114.645 25.4977 113.536 24.447 111.318 23.6764Z" fill="white"/>
<path d="M3.85268 44.2921C3.85268 44.7358 3.92272 45.1678 4.06282 45.588C3.92272 45.8682 3.60751 46.0083 3.11716 46.0083C2.62682 46.0083 2.20653 45.8332 1.85629 45.483C1.50605 45.1327 1.33092 44.6657 1.33092 44.082C1.33092 42.7511 1.90299 41.5252 3.04712 40.4044C4.16789 39.2603 5.54552 38.3964 7.17999 37.8126C8.8378 37.2056 10.5073 36.902 12.1885 36.902C20.0339 36.902 23.9566 39.7156 23.9566 45.3429C23.9566 46.8139 23.513 48.1331 22.6257 49.3006C21.7384 50.4447 20.6994 51.2853 19.5085 51.8224C18.3411 52.3594 17.1969 52.6279 16.0762 52.6279C17.3837 52.6279 18.5395 52.9198 19.5436 53.5035C20.571 54.0873 21.3999 54.8461 22.0303 55.7801C22.6841 56.7141 23.2795 57.7532 23.8165 58.8973C24.3769 60.0181 24.9256 61.1505 25.4627 62.2946C25.9997 63.4388 26.5835 64.4778 27.2139 65.4118C27.8443 66.3458 28.6499 67.1046 29.6306 67.6884C30.6346 68.2721 31.7787 68.564 33.063 68.564C33.6467 68.564 34.1254 68.4473 34.499 68.2138C34.8492 68.2371 35.0243 68.4356 35.0243 68.8092C35.0243 69.6031 34.2071 70 32.5726 70C30.9381 70 29.4788 69.6964 28.1946 69.0894C26.9104 68.4823 25.8713 67.6884 25.0774 66.7077C24.2835 65.727 23.5597 64.6413 22.9059 63.4504C22.2755 62.283 21.6801 61.1155 21.1197 59.948C20.5593 58.7805 19.9639 57.7065 19.3334 56.7258C18.7263 55.7451 17.9441 54.9512 16.9868 54.3441C16.0295 53.737 14.932 53.4335 13.6945 53.4335C13.0874 53.4335 12.7839 53.1066 12.7839 52.4528C12.7839 52.1726 12.8773 51.9625 13.0641 51.8224C13.2509 51.6823 13.461 51.6122 13.6945 51.6122C15.866 51.6122 17.5822 50.9818 18.8431 49.7209C20.104 48.4367 20.7344 46.9773 20.7344 45.3429C20.7344 43.0546 19.9639 41.3618 18.4228 40.2643C16.8817 39.1669 14.9554 38.6182 12.6438 38.6182C10.3555 38.6182 8.31244 39.1669 6.51452 40.2643C4.73996 41.3384 3.85268 42.681 3.85268 44.2921ZM7.9155 43.2764C7.9155 42.576 8.09062 42.0506 8.44086 41.7003C8.79111 41.3268 9.2114 41.14 9.70174 41.14C10.1921 41.14 10.6707 41.3034 11.1377 41.6303V57.076C11.1377 59.5277 10.6707 61.4774 9.73676 62.9251C8.82613 64.3728 7.43683 65.0966 5.56887 65.0966C3.72425 65.0966 2.33495 64.6646 1.40097 63.8007C0.466991 62.9601 0 61.8393 0 60.4384C0 58.6404 0.583739 57.7415 1.75122 57.7415C2.03141 57.7415 2.27658 57.8115 2.48673 57.9516C2.69687 58.0917 2.87199 58.2902 3.01209 58.547C2.82529 59.0374 2.7319 59.7612 2.7319 60.7185C2.7319 61.6759 2.97707 62.4114 3.46741 62.9251C3.9811 63.4154 4.62321 63.6606 5.39375 63.6606C7.07491 63.6606 7.9155 62.1662 7.9155 59.1775V43.2764Z" fill="white"/>
<path d="M41.5304 55.1847C42.0207 55.1847 42.2659 55.5583 42.2659 56.3055C42.2659 58.0334 41.6588 59.6094 40.4446 61.0338C39.2538 62.4581 37.4325 63.1703 34.9808 63.1703C32.5291 63.1703 30.5561 62.5165 29.0617 61.2089C27.5907 59.878 26.8552 57.94 26.8552 55.3949C26.8552 52.8264 27.509 50.83 28.8165 49.4057C30.1241 47.958 31.7936 47.2342 33.825 47.2342C35.296 47.2342 36.3701 47.6311 37.0472 48.425C37.7244 49.1955 38.063 50.1179 38.063 51.1919C38.063 52.9431 37.3274 54.4025 35.8564 55.57C34.4087 56.7141 32.5525 57.2862 30.2876 57.2862C30.4977 58.7805 31.0347 59.913 31.8987 60.6835C32.786 61.4307 33.9418 61.8043 35.3661 61.8043C36.8138 61.8043 38.1097 61.2673 39.2538 60.1932C40.4213 59.0958 41.005 57.4963 41.005 55.3949C41.0283 55.2548 41.2035 55.1847 41.5304 55.1847ZM30.1825 55.675V55.9903C31.6302 55.8035 32.8794 55.3482 33.9301 54.6243C35.0042 53.9005 35.5412 52.8264 35.5412 51.4021C35.5412 50.4914 35.3427 49.8026 34.9458 49.3356C34.5488 48.8453 33.9885 48.6001 33.2646 48.6001C32.1672 48.6001 31.3733 49.1372 30.883 50.2113C30.416 51.2853 30.1825 53.1066 30.1825 55.675Z" fill="white"/>
<path d="M55.7582 55.8852C56.2485 55.8852 56.4937 56.2238 56.4937 56.9009C56.4937 57.578 56.3536 58.2552 56.0734 58.9323C55.7932 59.6094 55.3846 60.2749 54.8475 60.9287C54.3338 61.5825 53.5983 62.1195 52.641 62.5398C51.707 62.9601 50.6446 63.1703 49.4538 63.1703C46.8386 63.1703 44.7839 62.5165 43.2895 61.2089C41.8185 59.878 41.083 57.94 41.083 55.3949C41.083 52.8264 41.7368 50.83 43.0443 49.4057C44.3519 47.958 46.0214 47.2342 48.0528 47.2342C49.5238 47.2342 50.5979 47.6311 51.2751 48.425C51.9522 49.1955 52.2908 50.1179 52.2908 51.1919C52.2908 51.7757 52.1156 52.2427 51.7654 52.5929C51.4152 52.9431 51.0766 53.1183 50.7497 53.1183C50.1426 53.1183 49.7457 52.9782 49.5589 52.698C49.699 52.3477 49.769 51.8457 49.769 51.1919C49.769 50.5381 49.5472 49.9427 49.1035 49.4057C48.6599 48.8687 48.1229 48.6001 47.4924 48.6001C46.395 48.6001 45.6011 49.1372 45.1108 50.2113C44.6438 51.2853 44.4103 52.9782 44.4103 55.2898C44.4103 57.578 44.8539 59.2359 45.7412 60.2632C46.6518 61.2906 47.9127 61.8043 49.5238 61.8043C51.135 61.8043 52.4892 61.314 53.5867 60.3333C54.6841 59.3293 55.2328 57.9166 55.2328 56.0953C55.2562 55.9552 55.4313 55.8852 55.7582 55.8852Z" fill="white"/>
<path d="M62.3523 47.2342C64.4304 47.2342 66.1233 47.923 67.4308 49.3006C68.7384 50.6782 69.3922 52.5579 69.3922 54.9395C69.3922 57.2978 68.7734 59.2592 67.5359 60.8236C66.3217 62.388 64.6873 63.1703 62.6325 63.1703C60.5778 63.1703 58.8616 62.4698 57.4839 61.0688C56.1297 59.6445 55.4525 57.6831 55.4525 55.1847C55.4525 52.663 56.083 50.7133 57.3438 49.3356C58.6281 47.9347 60.2976 47.2342 62.3523 47.2342ZM62.3873 48.6001C61.7569 48.6001 61.2082 48.7636 60.7412 49.0905C60.2976 49.394 60.0757 49.8377 60.0757 50.4214C60.0757 51.9158 60.6595 53.3518 61.827 54.7294C62.9944 56.0837 64.3837 56.9826 65.9949 57.4263C66.0415 56.539 66.0649 55.7801 66.0649 55.1497C66.0649 52.7213 65.8081 51.0285 65.2944 50.0712C64.7807 49.0905 63.8117 48.6001 62.3873 48.6001ZM58.7798 55.1497C58.7798 57.5313 59.0717 59.2359 59.6554 60.2632C60.2625 61.2906 61.2432 61.8043 62.5975 61.8043C63.5315 61.8043 64.2436 61.5708 64.734 61.1038C65.2477 60.6135 65.5979 59.8313 65.7847 58.7572C64.267 58.4303 62.866 57.7415 61.5818 56.6908C60.3209 55.64 59.3986 54.4725 58.8149 53.1883C58.7915 53.5853 58.7798 54.2391 58.7798 55.1497Z" fill="white"/>
<path d="M74.9849 57.111V62.6799C74.7514 63.0068 74.3428 63.1703 73.759 63.1703C73.1753 63.1703 72.7083 62.9951 72.3581 62.6449C72.0078 62.2713 71.8327 61.7343 71.8327 61.0338V47.7245C72.0662 47.3976 72.4748 47.2342 73.0585 47.2342C73.6423 47.2342 74.1093 47.421 74.4595 47.7946C74.8098 48.1448 74.9849 48.6702 74.9849 49.3707V52.0325C76.1524 49.1372 77.7635 47.6895 79.8182 47.6895C81.2893 47.6895 82.3633 48.0864 83.0405 48.8803C83.7176 49.6509 84.0562 50.5732 84.0562 51.6473C84.0562 52.231 83.8811 52.698 83.5308 53.0482C83.1806 53.3985 82.842 53.5736 82.5151 53.5736C81.908 53.5736 81.5111 53.4335 81.3243 53.1533C81.4644 52.8031 81.5344 52.301 81.5344 51.6473C81.5344 50.9935 81.3126 50.398 80.869 49.861C80.4253 49.324 79.8883 49.0555 79.2579 49.0555C78.1604 49.0555 77.1681 50.0595 76.2808 52.0675C75.4168 54.0523 74.9849 55.7334 74.9849 57.111Z" fill="white"/>
<path d="M85.4106 54.9395C85.4106 52.2543 86.0411 50.3047 87.3019 49.0905C88.5862 47.853 90.279 47.2342 92.3805 47.2342C93.7347 47.2342 94.8088 47.5027 95.6027 48.0397V43.2764C95.6027 40.3344 95.8946 38.1979 96.4783 36.867C97.0854 35.5127 98.2062 34.8356 99.8407 34.8356C100.728 34.8356 101.417 35.2092 101.907 35.9564C102.397 36.7035 102.643 37.7659 102.643 39.1436C102.643 41.642 101.347 44.1871 98.7549 46.7789V57.7765C98.7549 59.1074 98.9767 60.1115 99.4204 60.7886C99.8874 61.4657 100.494 61.8043 101.242 61.8043C101.989 61.8043 102.701 61.349 103.378 60.4384C104.079 59.5044 104.429 58.0334 104.429 56.0253C104.429 55.5816 104.417 55.2314 104.394 54.9746C104.417 54.8345 104.592 54.7644 104.919 54.7644C105.339 54.7644 105.55 55.3832 105.55 56.6207C105.55 58.5587 105.106 60.1348 104.219 61.349C103.355 62.5632 102.234 63.1703 100.856 63.1703C98.358 63.1703 96.7235 62.0728 95.953 59.878C95.5093 60.8587 94.9022 61.6525 94.1317 62.2596C93.3612 62.8434 92.4972 63.1352 91.5399 63.1352C87.4537 63.1352 85.4106 60.4033 85.4106 54.9395ZM91.8901 61.7693C92.7541 61.7693 93.5713 61.3023 94.3418 60.3683C95.1357 59.411 95.5327 58.1968 95.5327 56.7258V52.2427C95.5327 51.0985 95.2525 50.2113 94.6921 49.5808C94.155 48.927 93.5129 48.6001 92.7657 48.6001C92.0419 48.6001 91.4698 48.6585 91.0496 48.7753C90.6526 48.892 90.2557 49.1489 89.8587 49.5458C89.1115 50.3163 88.7379 52.1142 88.7379 54.9395C88.7379 57.7882 89.0648 59.6561 89.7186 60.5434C90.3024 61.3607 91.0262 61.7693 91.8901 61.7693ZM99.8757 36.2015C99.3853 36.2015 99.0701 36.7502 98.93 37.8477C98.8133 38.9217 98.7549 41.3384 98.7549 45.0977C100.343 43.0429 101.137 41.0466 101.137 39.1085C101.137 37.1705 100.716 36.2015 99.8757 36.2015Z" fill="white"/>
<path d="M110.873 56.0253C109.939 55.6984 109.005 55.3598 108.071 55.0096C107.16 54.636 106.39 54.1106 105.759 53.4335C105.129 52.7564 104.814 51.8924 104.814 50.8417C104.814 49.7676 105.304 48.9037 106.285 48.2499C107.266 47.5728 108.69 47.2342 110.558 47.2342C112.449 47.2342 113.92 47.5611 114.971 48.2149C116.045 48.8687 116.582 49.6275 116.582 50.4914C116.582 50.9117 116.419 51.2503 116.092 51.5072C115.788 51.764 115.485 51.8924 115.181 51.8924C114.597 51.8924 114.212 51.7523 114.025 51.4721C114.165 51.3087 114.235 50.9935 114.235 50.5265C114.235 50.0361 113.873 49.5925 113.15 49.1955C112.426 48.7986 111.62 48.6001 110.733 48.6001C109.846 48.6001 109.11 48.7636 108.526 49.0905C107.943 49.4174 107.651 49.9194 107.651 50.5965C107.651 51.2503 107.978 51.8224 108.631 52.3127C109.309 52.8031 110.114 53.2117 111.048 53.5386C112.005 53.8655 112.951 54.2157 113.885 54.5893C114.842 54.9629 115.648 55.4999 116.302 56.2004C116.979 56.8776 117.318 57.7181 117.318 58.7222C117.318 60.2165 116.664 61.3373 115.356 62.0845C114.072 62.8083 112.367 63.1703 110.243 63.1703C108.141 63.1703 106.425 62.5632 105.094 61.349C103.786 60.1115 103.133 58.5821 103.133 56.7608C103.133 56.107 103.261 55.5933 103.518 55.2197C103.775 54.8461 104.067 54.6593 104.394 54.6593C105.001 54.6593 105.351 54.7644 105.444 54.9746L105.514 55.0796C105.374 55.4299 105.304 55.8618 105.304 56.3755C105.304 57.94 105.759 59.2359 106.67 60.2632C107.581 61.2906 108.842 61.8043 110.453 61.8043C112.928 61.8043 114.177 60.9287 114.2 59.1775C114.2 57.8466 113.091 56.7958 110.873 56.0253Z" fill="white"/>
</svg>
