<svg width="40" height="40" viewBox="0 0 40 40" fill="none" xmlns="http://www.w3.org/2000/svg">
<path d="M30.1688 27H27.6213C26.6456 27 26.3746 26.2891 24.6402 24.6641C23.1225 23.293 22.4721 23.1406 22.1468 23.1406C21.659 23.1406 21.4964 23.2422 21.4964 23.9023V26.0352C21.4964 26.5937 21.3338 26.9492 19.6535 26.9492C16.9976 26.9492 14.0165 25.4258 11.9568 22.582C8.81304 18.418 8 15.3203 8 14.7109C8 14.3555 8.1084 14.0508 8.81304 14.0508H11.3606C11.9568 14.0508 12.2278 14.3047 12.4988 14.9648C13.7455 18.3672 15.8052 21.3125 16.6724 21.3125C16.9976 21.3125 17.1602 21.1602 17.1602 20.3984V16.8945C17.0518 15.2695 16.1846 15.168 16.1846 14.5586C16.1846 14.3047 16.4556 14 16.7808 14H20.7376C21.2796 14 21.4422 14.2539 21.4422 14.8633V19.5352C21.4422 20.043 21.659 20.1953 21.8216 20.1953C22.1468 20.1953 22.4179 20.043 23.0141 19.4844C24.857 17.5547 26.1036 14.6602 26.1036 14.6602C26.2662 14.3047 26.5914 14 27.1877 14H29.681C30.4398 14 30.6024 14.3555 30.4398 14.8633C30.1146 16.2344 27.0251 20.3477 27.0251 20.3477L27.0175 20.3589C26.7521 20.7568 26.6492 20.911 27.0251 21.4141C27.2961 21.7695 28.2175 22.4805 28.7595 23.1406C29.8436 24.3086 30.6566 25.2734 30.8734 25.9336C31.1987 26.6445 30.8734 27 30.1688 27Z" fill="white"/>
</svg>
